REM DIRINDEX 1\2\5,1\2\6,1\2\7,1\2\8,1\3\9,1\3\10,1\3\11,1\4\12,1\4\13,1\4\14,1\4\15,1\4\16
REM DIRNAME folder01,folder02,folder03,folder04,folder05,folder06,folder07,folder08,folder09,folder10,folder11,folder12,folder13,folder14,folder15,folder16
TITLE ""
FILE "1200_2_sec01_0242_0260.mp3" MP3
  TRACK 01 AUDIO
    TITLE "0:"
    INDEX 01 00:00:00
  TRACK 02 AUDIO
    TITLE "10:cjc034_00497"
    INDEX 01 00:00:17
  TRACK 03 AUDIO
    TITLE "0:"
    INDEX 01 00:02:32
  TRACK 04 AUDIO
    TITLE "9:cjc034_00498"
    INDEX 01 00:02:53
  TRACK 05 AUDIO
    TITLE "0:"
    INDEX 01 00:03:74
  TRACK 06 AUDIO
    TITLE "10:cjc034_00499"
    INDEX 01 00:04:72
  TRACK 07 AUDIO
    TITLE "0:"
    INDEX 01 00:06:10
  TRACK 08 AUDIO
    TITLE "9:cjc034_00500"
    INDEX 01 00:06:33
  TRACK 09 AUDIO
    TITLE "0:"
    INDEX 01 00:08:03
  TRACK 10 AUDIO
    TITLE "10:cjc034_00501"
    INDEX 01 00:09:04
  TRACK 11 AUDIO
    TITLE "0:"
    INDEX 01 00:10:12
  TRACK 12 AUDIO
    TITLE "9:cjc034_00502"
    INDEX 01 00:10:35
  TRACK 13 AUDIO
    TITLE "0:"
    INDEX 01 00:12:30
  TRACK 14 AUDIO
    TITLE "10:cjc034_00503"
    INDEX 01 00:13:32
  TRACK 15 AUDIO
    TITLE "0:"
    INDEX 01 00:15:28
  TRACK 16 AUDIO
    TITLE "9:cjc034_00504"
    INDEX 01 00:15:48
  TRACK 17 AUDIO
    TITLE "0:"
    INDEX 01 00:17:51
  TRACK 18 AUDIO
    TITLE "10:cjc034_00505"
    INDEX 01 00:18:46
  TRACK 19 AUDIO
    TITLE "0:"
    INDEX 01 00:22:46
  TRACK 20 AUDIO
    TITLE "9:cjc034_00506"
    INDEX 01 00:22:66
  TRACK 21 AUDIO
    TITLE "0:"
    INDEX 01 00:24:45
  TRACK 22 AUDIO
    TITLE "10:cjc034_00507"
    INDEX 01 00:25:39
  TRACK 23 AUDIO
    TITLE "0:"
    INDEX 01 00:26:48
  TRACK 24 AUDIO
    TITLE "9:cjc034_00508"
    INDEX 01 00:26:73
  TRACK 25 AUDIO
    TITLE "0:"
    INDEX 01 00:28:33
  TRACK 26 AUDIO
    TITLE "10:cjc034_00509"
    INDEX 01 00:29:36
  TRACK 27 AUDIO
    TITLE "0:"
    INDEX 01 00:31:06
  TRACK 28 AUDIO
    TITLE "9:cjc034_00510"
    INDEX 01 00:31:29
  TRACK 29 AUDIO
    TITLE "0:"
    INDEX 01 00:34:18
  TRACK 30 AUDIO
    TITLE "10:cjc034_00511"
    INDEX 01 00:35:12
  TRACK 31 AUDIO
    TITLE "0:"
    INDEX 01 00:38:18
  TRACK 32 AUDIO
    TITLE "9:cjc034_00512"
    INDEX 01 00:38:37
  TRACK 33 AUDIO
    TITLE "0:"
    INDEX 01 00:39:54
  TRACK 34 AUDIO
    TITLE "10:cjc034_00513"
    INDEX 01 00:40:50
  TRACK 35 AUDIO
    TITLE "0:"
    INDEX 01 00:42:10
  TRACK 36 AUDIO
    TITLE "9:cjc034_00514"
    INDEX 01 00:42:29
  TRACK 37 AUDIO
    TITLE "0:"
    INDEX 01 00:43:48
  TRACK 38 AUDIO
    TITLE "10:cjc034_00515"
    INDEX 01 00:44:44
  TRACK 39 AUDIO
    TITLE "0:"
    INDEX 01 00:45:43
  TRACK 40 AUDIO
    TITLE "9:cjc034_00516"
    INDEX 01 00:45:63
  TRACK 41 AUDIO
    TITLE "0:"
    INDEX 01 00:47:15
  TRACK 42 AUDIO
    TITLE "10:cjc034_00517"
    INDEX 01 00:48:10
  TRACK 43 AUDIO
    TITLE "0:"
    INDEX 01 00:50:33
  TRACK 44 AUDIO
    TITLE "9:cjc034_00518"
    INDEX 01 00:50:50
  TRACK 45 AUDIO
    TITLE "0:"
    INDEX 01 00:57:62
  TRACK 46 AUDIO
    TITLE "10:cjc034_00519"
    INDEX 01 00:58:60
  TRACK 47 AUDIO
    TITLE "0:"
    INDEX 01 01:01:48
  TRACK 48 AUDIO
    TITLE "9:cjc034_00520"
    INDEX 01 01:01:66
  TRACK 49 AUDIO
    TITLE "0:"
    INDEX 01 01:03:16
  TRACK 50 AUDIO
    TITLE "10:cjc034_00521"
    INDEX 01 01:04:13
  TRACK 51 AUDIO
    TITLE "0:"
    INDEX 01 01:07:00
  TRACK 52 AUDIO
    TITLE "9:cjc034_00522"
    INDEX 01 01:07:19
  TRACK 53 AUDIO
    TITLE "0:"
    INDEX 01 01:08:60
  TRACK 54 AUDIO
    TITLE "10:cjc034_00523"
    INDEX 01 01:09:57
  TRACK 55 AUDIO
    TITLE "0:"
    INDEX 01 01:10:63
  TRACK 56 AUDIO
    TITLE "9:cjc034_00524"
    INDEX 01 01:11:09
  TRACK 57 AUDIO
    TITLE "0:"
    INDEX 01 01:15:17
  TRACK 58 AUDIO
    TITLE "10:cjc034_00525"
    INDEX 01 01:16:12
  TRACK 59 AUDIO
    TITLE "0:"
    INDEX 01 01:18:49
  TRACK 60 AUDIO
    TITLE "9:cjc034_00526"
    INDEX 01 01:18:66
  TRACK 61 AUDIO
    TITLE "0:"
    INDEX 01 01:20:12
  TRACK 62 AUDIO
    TITLE "10:cjc034_00527"
    INDEX 01 01:21:10
  TRACK 63 AUDIO
    TITLE "0:"
    INDEX 01 01:22:21
  TRACK 64 AUDIO
    TITLE "9:cjc034_00528"
    INDEX 01 01:22:39
  TRACK 65 AUDIO
    TITLE "0:"
    INDEX 01 01:24:24
  TRACK 66 AUDIO
    TITLE "11:cjc034_00529"
    INDEX 01 01:25:70
  TRACK 67 AUDIO
    TITLE "0:"
    INDEX 01 01:29:68
  TRACK 68 AUDIO
    TITLE "10:cjc034_00530"
    INDEX 01 01:30:67
  TRACK 69 AUDIO
    TITLE "0:"
    INDEX 01 01:32:12
  TRACK 70 AUDIO
    TITLE "9:cjc034_00531"
    INDEX 01 01:32:29
  TRACK 71 AUDIO
    TITLE "0:"
    INDEX 01 01:35:24
  TRACK 72 AUDIO
    TITLE "10:cjc034_00532"
    INDEX 01 01:36:23
  TRACK 73 AUDIO
    TITLE "0:"
    INDEX 01 01:38:18
  TRACK 74 AUDIO
    TITLE "9:cjc034_00533"
    INDEX 01 01:38:40
  TRACK 75 AUDIO
    TITLE "0:"
    INDEX 01 01:40:05
  TRACK 76 AUDIO
    TITLE "10:cjc034_00534"
    INDEX 01 01:41:01
  TRACK 77 AUDIO
    TITLE "0:"
    INDEX 01 01:42:20
  TRACK 78 AUDIO
    TITLE "9:cjc034_00535"
    INDEX 01 01:42:33
  TRACK 79 AUDIO
    TITLE "0:"
    INDEX 01 01:43:54
